<?xml version="1.0" encoding="utf-8"?>
<!-- Generator: Adobe Illustrator 23.0.1, SVG Export Plug-In . SVG Version: 6.00 Build 0)  -->
<svg version="1.1" id="Capa_1" xmlns="http://www.w3.org/2000/svg" xmlns:xlink="http://www.w3.org/1999/xlink" x="0px" y="0px"
	 viewBox="0 0 24 24" style="enable-background:new 0 0 24 24;" xml:space="preserve">
<style type="text/css">
	.st0{fill:#033F0E;}
</style>
<title>Django icon</title>
<path class="st0" d="M11.1,0h3.9v18.2c-2,0.4-3.5,0.5-5.1,0.5c-4.8,0-7.3-2.2-7.3-6.3c0-4,2.7-6.6,6.8-6.6c0.6,0,1.1,0.1,1.7,0.2
	C11.1,6,11.1,0,11.1,0z M11.1,9.1C10.7,9,10.3,8.9,9.8,8.9c-2,0-3.1,1.2-3.1,3.4c0,2.1,1.1,3.2,3.1,3.2c0.4,0,0.8,0,1.4-0.1
	L11.1,9.1L11.1,9.1z M21.3,6.1v9.1c0,3.1-0.2,4.6-0.9,5.9c-0.6,1.2-1.5,2-3.2,2.9l-3.6-1.7c1.7-0.8,2.6-1.5,3.1-2.6
	c0.6-1.1,0.7-2.4,0.7-5.8V6.1L21.3,6.1L21.3,6.1z M17.4,0h3.9v4h-3.9V0z"/>
</svg>
