<?xml version="1.0" encoding="utf-8"?>
<!-- Generator: Adobe Illustrator 23.0.1, SVG Export Plug-In . SVG Version: 6.00 Build 0)  -->
<svg version="1.1" id="Capa_1" focusable="false" xmlns="http://www.w3.org/2000/svg" xmlns:xlink="http://www.w3.org/1999/xlink"
	 x="0px" y="0px" viewBox="0 0 448 512" style="enable-background:new 0 0 448 512;" xml:space="preserve">
<style type="text/css">
	.st0{fill:#FFD849;}
	.st1{fill:#FFFFFF;}
	.st2{fill:#3772A4;}
</style>
<path class="st0" d="M439.8,200.5c-7.7-30.9-22.3-54.2-53.4-54.2h-40.1v47.4c0,36.8-31.2,67.8-66.8,67.8H172.7
	c-29.2,0-53.4,25-53.4,54.3v101.8c0,29,25.2,46,53.4,54.3c33.8,9.9,66.3,11.7,106.8,0c26.9-7.8,53.4-23.5,53.4-54.3v-40.7H226.2
	v-13.6h160.2c31.1,0,42.6-21.7,53.4-54.2C451,275.6,450.5,243.4,439.8,200.5L439.8,200.5z"/>
<path class="st1" d="M286.2,404c11.1,0,20.1,9.1,20.1,20.3c0,11.3-9,20.4-20.1,20.4c-11,0-20.1-9.2-20.1-20.4
	C266.2,413,275.2,404,286.2,404z"/>
<path class="st2" d="M167.7,248h106.8c29.8,0,53.5-24.5,53.5-54.3V91.8c0-29-24.4-50.7-53.5-55.6c-35.9-5.9-74.8-5.6-107,0.1
	C122.2,44.3,114,61,114,91.9V133h107v13H74c-31.1,0-58.3,18.7-66.8,54.2c-9.8,40.7-10.2,66.1,0,108.6C14.8,340.4,32.9,363,64,363h37
	v-48.7C101,279,131.4,248,167.7,248L167.7,248z"/>
<path class="st1" d="M161.1,105.5c-11.1,0-20.1-9.1-20.1-20.3c0.1-11.3,9-20.4,20.1-20.4c11,0,20.1,9.2,20.1,20.4
	S172.2,105.5,161.1,105.5z"/>
</svg>
